# xmcd
#
# Track frame offsets:
#	150
#	13850
#	28875
#	39425
#	50850
#	71043
#	82073
#	96416
#	108791
#	125778
#	135999
#	145899
#	164393
#	176806
#
# Disc length: 2591 seconds
#
# Revision: 1
# Processed by: cddbd v1.5.2PL0 Copyright (c) Steve Scherf et al.
# Submitted via: audiograbber 1.83.01
#
DISCID=cf0a1d0e
DTITLE=The Fargone Beauties - Dark side of the moo
DYEAR=1900
DGENRE=
TTITLE0=Mama weer crazy now
TTITLE1=Fat bottom girls
TTITLE2=I hear you knocking
TTITLE3=Johnny B Goode
TTITLE4=Get it on
TTITLE5=Top hog
TTITLE6=Thats the way/ The Hussel
TTITLE7=Judgement day
TTITLE8=Ballroom blitz/Magnificent 7
TTITLE9=I'm Walking
TTITLE10=She's so fine
TTITLE11=I'm not in love
TTITLE12=Wild thing
TTITLE13=Hey Joe
EXTD=
EXTT0=
EXTT1=
EXTT2=
EXTT3=
EXTT4=
EXTT5=
EXTT6=
EXTT7=
EXTT8=
EXTT9=
EXTT10=
EXTT11=
EXTT12=
EXTT13=
PLAYORDER=
